<svg xmlns="http://www.w3.org/2000/svg"  viewBox="0 0 64 64" width="64px" height="64px"><path fill="#f283a5" d="M52.927,58H11.073C8.271,58,6,55.729,6,52.927V11.073C6,8.271,8.271,6,11.073,6h41.854 C55.729,6,58,8.271,58,11.073v41.854C58,55.729,55.729,58,52.927,58z"/><path fill="#efc88e" d="M54.413,58H9.587C7.606,58,6,56.517,6,54.689c0,0,0-16.073,0-20.689h52c0,4.615,0,20.689,0,20.689 C58,56.517,56.394,58,54.413,58z"/><path fill="#ffeb9b" d="M55,58H10c-0.952,0-4.952-6-4-6h52C58.952,52,55.952,58,55,58z"/><path fill="#8d6c9f" d="M12,50c-0.551,0-1,0.445-1,1v2c0,0.555,0.449,1,1,1s1-0.445,1-1v-2C13,50.445,12.551,50,12,50z"/><path fill="#8d6c9f" d="M17,50c-0.551,0-1,0.445-1,1v2c0,0.555,0.449,1,1,1s1-0.445,1-1v-2C18,50.445,17.551,50,17,50z"/><path fill="#8d6c9f" d="M22,50c-0.551,0-1,0.445-1,1v2c0,0.555,0.449,1,1,1s1-0.445,1-1v-2C23,50.445,22.551,50,22,50z"/><path fill="#8d6c9f" d="M27,50c-0.551,0-1,0.445-1,1v2c0,0.555,0.449,1,1,1s1-0.445,1-1v-2C28,50.445,27.551,50,27,50z"/><path fill="#8d6c9f" d="M32,50c-0.551,0-1,0.445-1,1v2c0,0.555,0.449,1,1,1s1-0.445,1-1v-2C33,50.445,32.551,50,32,50z"/><path fill="#8d6c9f" d="M37,50c-0.551,0-1,0.445-1,1v2c0,0.555,0.449,1,1,1s1-0.445,1-1v-2C38,50.445,37.551,50,37,50z"/><path fill="#8d6c9f" d="M42,50c-0.551,0-1,0.445-1,1v2c0,0.555,0.449,1,1,1s1-0.445,1-1v-2C43,50.445,42.551,50,42,50z"/><path fill="#8d6c9f" d="M47,50c-0.551,0-1,0.445-1,1v2c0,0.555,0.449,1,1,1s1-0.445,1-1v-2C48,50.445,47.551,50,47,50z"/><path fill="#8d6c9f" d="M52,50c-0.551,0-1,0.445-1,1v2c0,0.555,0.449,1,1,1s1-0.445,1-1v-2C53,50.445,52.551,50,52,50z"/><path fill="#fff8ee" d="M57.67,9.55c0.11-0.1-2.84-2.88-3.21-2.55c-4.53,4.13-9.07,8.27-13.6,12.4 c-0.26,0.22-0.62,0.32-0.94,0.21c-4.14-1.51-0.5-6.97-2.86-6.97c-1.94,0-2.97,0.85-3.68,2.02c-1.42,2.3-1.57,5.81-5.07,6.24 c-2.84,0.37-5.54,0.37-8.5,3.29c-4.87,4.8-5.49,12,0.61,18.45c4.3,3.95,8.92,5.04,12.96,3.97c2.13-0.56,4.09-1.71,5.76-3.36 c2.95-2.92,2.95-5.58,3.34-8.38c0.64-5.19,8.36-2.92,8.36-8.62c0-2.32-5.45,1.22-7.02-2.76c-0.13-0.31-0.03-0.69,0.22-0.92 c4.37-4.15,9.13-8.72,13.52-12.91c0,0,0,0,0,0.01c0.02-0.02,0.03-0.03,0.05-0.05c0.02-0.02,0.04-0.04,0.07-0.06 C57.68,9.55,57.67,9.55,57.67,9.55z M39,29l-2,3l-6-6l2-2L39,29z M31.89,35.29l-1.35,1.47l-4.43-4.05l1.35-1.47L31.89,35.29z"/><path fill="#8d6c9f" d="M30.406,48.002c-3.658,0-7.352-1.585-10.665-4.629c-6.122-6.472-6.352-14.262-0.638-19.895 c2.885-2.844,5.568-3.158,8.162-3.46c0.303-0.036,0.606-0.071,0.911-0.111c1.868-0.227,2.47-1.489,3.298-3.531 c0.306-0.754,0.623-1.535,1.058-2.242c1.02-1.675,2.5-2.492,4.524-2.492c0.706,0,1.129,0.3,1.361,0.552 c0.631,0.688,0.544,1.705,0.453,2.782c-0.164,1.923-0.152,3.131,1.395,3.693L53.788,6.261c0.408-0.372,1.042-0.342,1.413,0.066 c0.372,0.408,0.342,1.041-0.066,1.413L41.529,20.142c-0.548,0.482-1.282,0.635-1.93,0.414c-3.116-1.134-2.869-4.023-2.722-5.75 c0.031-0.363,0.074-0.875,0.052-1.16c-1.278,0.034-2.055,0.486-2.691,1.532c-0.351,0.569-0.623,1.24-0.911,1.95 c-0.792,1.953-1.778,4.384-4.901,4.763c-0.305,0.04-0.618,0.076-0.929,0.113c-2.466,0.288-4.595,0.537-6.99,2.898 c-4.867,4.798-4.617,11.49,0.637,17.047c3.726,3.42,8.001,4.752,11.985,3.698c1.961-0.518,3.749-1.563,5.313-3.105 c2.368-2.345,2.626-4.43,2.926-6.845c0.04-0.319,0.08-0.639,0.125-0.961c0.379-3.081,2.847-4.051,4.83-4.831 c2.2-0.865,3.465-1.463,3.52-3.517c-0.292-0.025-0.817,0.02-1.189,0.05c-1.72,0.142-4.595,0.381-5.765-2.58 c-0.274-0.689-0.085-1.501,0.472-2.019c2.894-2.755,5.973-5.7,9.001-8.596l4.508-4.309c0.22-0.209,0.521-0.305,0.825-0.268 c0.301,0.041,0.567,0.216,0.724,0.477c0.038,0.062,0.072,0.137,0.095,0.206c0.141,0.423-0.017,0.874-0.358,1.124l-4.411,4.216 c-3.007,2.875-6.064,5.798-8.948,8.545c0.603,1.36,1.86,1.363,3.693,1.211c1.091-0.091,2.121-0.175,2.809,0.457 c0.25,0.23,0.547,0.65,0.547,1.345c0,3.636-2.656,4.68-4.791,5.519c-2.073,0.815-3.354,1.407-3.579,3.23 c-0.046,0.328-0.084,0.638-0.123,0.947c-0.317,2.55-0.644,5.187-3.505,8.021c-1.792,1.767-3.938,3.017-6.208,3.617 C32.572,47.863,31.491,48.002,30.406,48.002z M44.733,23.294c0,0.001-0.001,0.001-0.002,0.002 C44.732,23.295,44.732,23.295,44.733,23.294z M44.748,23.121L44.748,23.121L44.748,23.121z"/><path fill="#8d6c9f" d="M52.927,59H11.073C7.725,59,5,56.275,5,52.927V11.073C5,7.725,7.725,5,11.073,5h41.854 C56.275,5,59,7.725,59,11.073v41.854C59,56.275,56.275,59,52.927,59z M11.073,7C8.827,7,7,8.827,7,11.073v41.854 C7,55.173,8.827,57,11.073,57h41.854C55.173,57,57,55.173,57,52.927V11.073C57,8.827,55.173,7,52.927,7H11.073z"/><path fill="#8d6c9f" d="M39.98,28.49l-1.445-1.319c-0.406-0.371-1.036-0.343-1.409,0.062l-0.001,0.001 c-0.373,0.406-0.346,1.039,0.061,1.411l0.703,0.645l-1.35,1.47l-4.43-4.05l1.35-1.47l0.779,0.713 c0.408,0.373,1.043,0.344,1.414-0.067h0c0.369-0.407,0.339-1.036-0.066-1.407L34.07,23.09c-0.19-0.18-0.45-0.27-0.72-0.26 c-0.26,0.01-0.51,0.12-0.69,0.32l-2.7,2.95c-0.37,0.41-0.34,1.04,0.06,1.41l5.91,5.4c0.18,0.17,0.42,0.27,0.67,0.27 c0.02,0,0.03,0,0.05-0.01c0.26-0.01,0.51-0.12,0.69-0.32l2.7-2.95C40.41,29.49,40.38,28.86,39.98,28.49z"/><path fill="#8d6c9f" d="M33.98,34.49l-5.91-5.4c-0.19-0.18-0.44-0.27-0.72-0.26c-0.26,0.01-0.51,0.12-0.69,0.32l-2.7,2.95 c-0.37,0.41-0.34,1.04,0.06,1.41l5.91,5.4c0.18,0.17,0.42,0.27,0.67,0.27c0.02,0,0.03,0,0.05-0.01c0.26-0.01,0.51-0.12,0.69-0.32 l2.7-2.95C34.41,35.49,34.38,34.86,33.98,34.49z M30.54,36.76l-4.43-4.05l1.35-1.47l4.43,4.05L30.54,36.76z"/></svg>